<svg version="1.1" viewBox="0 0 265 79.7" xmlns="http://www.w3.org/2000/svg">
  <g transform="translate(28.7 -67.4)">
    <g transform="matrix(.265 0 0 .265 -28.7 67.4)">
      <path d="m620 236c-58.1 42.8-142 65.7-215 65.7-102 0-193-37.6-262-100-5.44-4.92-0.566-11.6 5.96-7.79 74.7 43.5 167 69.6 263 69.6 64.4 0 135-13.3 200-41 9.84-4.18 18.1 6.44 8.44 13.6" style="fill-rule:evenodd;fill:#f90"/>
      <path d="m645 208c-7.4-9.49-49.1-4.48-67.8-2.26-5.7 0.696-6.57-4.27-1.44-7.84 33.2-23.4 87.7-16.6 94.1-8.79 6.36 7.88-1.65 62.5-32.9 88.6-4.79 4-9.36 1.87-7.23-3.44 7.01-17.5 22.7-56.7 15.3-66.3" style="fill-rule:evenodd;fill:#f90"/>
      <path d="m578 32.9v-22.7c0-3.44 2.61-5.75 5.75-5.75h102c3.26 0 5.88 2.35 5.88 5.75v19.5c-0.0435 3.26-2.79 7.53-7.66 14.3l-52.7 75.3c19.6-0.479 40.3 2.44 58 12.4 4 2.26 5.09 5.57 5.4 8.84v24.2c0 3.31-3.66 7.18-7.49 5.18-31.3-16.4-72.9-18.2-107 0.174-3.53 1.92-7.23-1.92-7.23-5.22v-23c0-3.7 0.0435-10 3.74-15.6l61.1-87.6h-53.1c-3.26 0-5.88-2.31-5.88-5.7" style="fill-rule:evenodd"/>
      <path d="m207 175h-30.9c-2.96-0.218-5.31-2.44-5.53-5.27v-159c0-3.18 2.66-5.7 5.96-5.7h28.9c3 0.13 5.4 2.44 5.62 5.31v20.8h0.566c7.53-20.1 21.7-29.4 40.7-29.4 19.4 0 31.5 9.36 40.2 29.4 7.49-20.1 24.5-29.4 42.7-29.4 13 0 27.2 5.35 35.8 17.4 9.79 13.4 7.79 32.8 7.79 49.8l-0.0435 100c0 3.18-2.66 5.75-5.96 5.75h-30.9c-3.09-0.218-5.57-2.7-5.57-5.75v-84.2c0-6.7 0.609-23.4-0.871-29.8-2.31-10.7-9.23-13.7-18.2-13.7-7.49 0-15.3 5.01-18.5 13-3.18 8.01-2.87 21.4-2.87 30.4v84.2c0 3.18-2.66 5.75-5.96 5.75h-30.9c-3.13-0.218-5.57-2.7-5.57-5.75l-0.0435-84.2c0-17.7 2.92-43.8-19.1-43.8-22.2 0-21.4 25.4-21.4 43.8v84.2c0 3.18-2.66 5.75-5.96 5.75" style="fill-rule:evenodd"/>
      <path d="m779 1.52c45.9 0 70.8 39.4 70.8 89.6 0 48.4-27.5 86.9-70.8 86.9-45.1 0-69.6-39.4-69.6-88.6 0-49.4 24.9-87.9 69.6-87.9m0.261 32.4c-22.8 0-24.2 31.1-24.2 50.5 0 19.4-0.305 60.9 24 60.9 24 0 25.1-33.4 25.1-53.8 0-13.4-0.566-29.4-4.61-42.1-3.48-11.1-10.4-15.4-20.2-15.4" style="fill-rule:evenodd"/>
      <path d="m909 175h-30.8c-3.09-0.218-5.57-2.7-5.57-5.75l-0.0435-159c0.261-2.92 2.83-5.18 5.96-5.18h28.7c2.7 0.13 4.92 1.96 5.53 4.44v24.3h0.566c8.66-21.7 20.8-32.1 42.2-32.1 13.9 0 27.4 5.01 36.1 18.7 8.1 12.7 8.1 34.1 8.1 49.4v100c-0.348 2.79-2.92 5.01-5.96 5.01h-31c-2.83-0.218-5.18-2.31-5.48-5.01v-86.3c0-17.4 2-42.8-19.4-42.8-7.53 0-14.5 5.05-17.9 12.7-4.35 9.71-4.92 19.4-4.92 30.1v85.5c-0.0435 3.18-2.74 5.75-6.05 5.75" style="fill-rule:evenodd"/>
      <path d="m497 98.8c0 12.1 0.305 22.1-5.79 32.8-4.92 8.71-12.8 14.1-21.4 14.1-11.9 0-18.8-9.05-18.8-22.4 0-26.4 23.6-31.2 46.1-31.2v6.7m31.2 75.4c-2.05 1.83-5.01 1.96-7.31 0.74-10.3-8.53-12.1-12.5-17.8-20.6-17 17.3-29 22.5-51 22.5-26.1 0-46.3-16.1-46.3-48.2 0-25.1 13.6-42.2 33-50.6 16.8-7.4 40.3-8.71 58.2-10.8v-4c0-7.36 0.566-16.1-3.79-22.4-3.74-5.7-11-8.05-17.4-8.05-11.8 0-22.3 6.05-24.9 18.6-0.522 2.79-2.57 5.53-5.4 5.66l-30-3.22c-2.52-0.566-5.35-2.61-4.61-6.49 6.88-36.4 39.8-47.4 69.2-47.4 15.1 0 34.7 4 46.6 15.4 15.1 14.1 13.6 32.8 13.6 53.2v48.2c0 14.5 6.01 20.9 11.7 28.7 1.96 2.79 2.39 6.14-0.131 8.23-6.31 5.27-17.5 15.1-23.7 20.5l-0.0435-0.0872" style="fill-rule:evenodd"/>
      <path d="m91.2 98.8c0 12.1 0.305 22.1-5.79 32.8-4.92 8.71-12.7 14.1-21.4 14.1-11.9 0-18.8-9.05-18.8-22.4 0-26.4 23.6-31.2 46-31.2v6.7m31.2 75.4c-2.05 1.83-5.01 1.96-7.31 0.74-10.3-8.53-12.1-12.5-17.8-20.6-17 17.3-29 22.5-51 22.5-26 0-46.3-16.1-46.3-48.2 0-25.1 13.6-42.2 33-50.6 16.8-7.4 40.3-8.71 58.2-10.8v-4c0-7.36 0.566-16.1-3.74-22.4-3.79-5.7-11-8.05-17.4-8.05-11.8 0-22.3 6.05-24.9 18.6-0.522 2.79-2.57 5.53-5.35 5.66l-30-3.22c-2.52-0.566-5.31-2.61-4.61-6.49 6.92-36.4 39.8-47.4 69.2-47.4 15.1 0 34.7 4 46.6 15.4 15.1 14.1 13.6 32.8 13.6 53.2v48.2c0 14.5 6.01 20.9 11.7 28.7 2 2.79 2.44 6.14-0.0871 8.23-6.31 5.27-17.5 15.1-23.7 20.5l-0.087-0.0872" style="fill-rule:evenodd"/>
    </g>
  </g>
</svg>
